<svg width="150" height="150" viewBox="0 0 150 150" fill="none" xmlns="http://www.w3.org/2000/svg">
<path d="M86.459 112.24C97.9173 112.24 112.24 97.9166 112.24 86.4583C112.24 97.9166 126.563 112.24 138.021 112.24C126.563 112.24 112.24 126.562 112.24 138.021C112.24 126.562 97.9173 112.24 86.459 112.24Z" fill="white"/>
<path d="M56.9307 19.6918L66.9568 29.7179L76.9828 19.6918C87.2661 9.40838 103.939 9.4084 114.222 19.6919C124.506 29.9752 124.506 46.648 114.222 56.9314L66.9568 104.197L19.6911 56.9314C9.40766 46.648 9.40767 29.9752 19.6911 19.6919C29.9745 9.4084 46.6473 9.40838 56.9307 19.6918Z" fill="url(#paint0_linear_1925_5268)"/>
<path d="M86.459 112.24C97.9173 112.24 112.24 97.9166 112.24 86.4583C112.24 97.9166 126.563 112.24 138.021 112.24C126.563 112.24 112.24 126.562 112.24 138.021C112.24 126.562 97.9173 112.24 86.459 112.24Z" stroke="#1D1D1B" stroke-width="12.5"/>
<path d="M56.9307 19.6918L66.9568 29.7179L76.9828 19.6918C87.2661 9.40838 103.939 9.4084 114.222 19.6919C124.506 29.9752 124.506 46.648 114.222 56.9314L66.9568 104.197L19.6911 56.9314C9.40766 46.648 9.40767 29.9752 19.6911 19.6919C29.9745 9.4084 46.6473 9.40838 56.9307 19.6918Z" stroke="#1D1D1B" stroke-width="12.5"/>
<defs>
<linearGradient id="paint0_linear_1925_5268" x1="121.935" y1="11.9792" x2="-2.81781" y2="74.8258" gradientUnits="userSpaceOnUse">
<stop stop-color="#06F881"/>
<stop offset="0.67" stop-color="#FFFACD"/>
</linearGradient>
</defs>
</svg>
