<svg width="100" height="100" viewBox="0 0 100 100" fill="none" xmlns="http://www.w3.org/2000/svg">
<path d="M50.0007 22.5737C32.1868 22.5737 23.2645 37.8515 9.89648 53.1291C23.2645 68.4069 32.1868 83.6847 50.0007 83.6847C67.8142 83.6847 76.7364 68.4069 90.1044 53.1291C76.7364 37.8515 67.8142 22.5737 50.0007 22.5737Z" fill="#FFFACD"/>
<path d="M38.543 53.128C38.543 56.1669 39.7502 59.0814 41.899 61.2303C44.0479 63.3791 46.9624 64.5863 50.0013 64.5863C53.0402 64.5863 55.9547 63.3791 58.1036 61.2303C60.2524 59.0814 61.4596 56.1669 61.4596 53.128C61.4596 50.0891 60.2524 47.1746 58.1036 45.0257C55.9547 42.8769 53.0402 41.6697 50.0013 41.6697C46.9624 41.6697 44.0479 42.8769 41.899 45.0257C39.7502 47.1746 38.543 50.0891 38.543 53.128Z" fill="white"/>
<path d="M20.9516 39.9374L10.0117 28.9976" stroke="#1D1D1B" stroke-width="8.33333"/>
<path d="M38.6116 24.9526L34.3535 11.177" stroke="#1D1D1B" stroke-width="8.33333"/>
<path d="M79.043 39.944L89.9891 28.9976" stroke="#1D1D1B" stroke-width="8.33333"/>
<path d="M61.3906 24.9516L65.6485 11.177" stroke="#1D1D1B" stroke-width="8.33333"/>
<path d="M50.0007 22.5737C32.1868 22.5737 23.2645 37.8515 9.89648 53.1291C23.2645 68.4069 32.1868 83.6847 50.0007 83.6847C67.8142 83.6847 76.7364 68.4069 90.1044 53.1291C76.7364 37.8515 67.8142 22.5737 50.0007 22.5737Z" stroke="#1D1D1B" stroke-width="8.33333"/>
<path d="M38.543 53.128C38.543 56.1669 39.7502 59.0814 41.899 61.2303C44.0479 63.3791 46.9624 64.5863 50.0013 64.5863C53.0402 64.5863 55.9547 63.3791 58.1036 61.2303C60.2524 59.0814 61.4596 56.1669 61.4596 53.128C61.4596 50.0891 60.2524 47.1746 58.1036 45.0257C55.9547 42.8769 53.0402 41.6697 50.0013 41.6697C46.9624 41.6697 44.0479 42.8769 41.899 45.0257C39.7502 47.1746 38.543 50.0891 38.543 53.128Z" stroke="#1D1D1B" stroke-width="8.33333"/>
</svg>
