<svg width="150" height="150" viewBox="0 0 150 150" fill="none" xmlns="http://www.w3.org/2000/svg">
<path d="M11.9785 69.2709C11.9785 84.4658 18.0146 99.0379 28.7588 109.782C39.5032 120.526 54.0755 126.563 69.2702 126.563C84.4651 126.563 99.0372 120.526 109.782 109.782C120.526 99.0379 126.562 84.4658 126.562 69.2709C126.562 54.0762 120.526 39.5039 109.782 28.7596C99.0372 18.0153 84.4651 11.9792 69.2702 11.9792C54.0755 11.9792 39.5032 18.0153 28.7588 28.7596C18.0146 39.5039 11.9785 54.0762 11.9785 69.2709Z" fill="url(#paint0_linear_1925_5226)"/>
<path d="M11.9785 69.2709C11.9785 84.4658 18.0146 99.0379 28.7588 109.782C39.5032 120.526 54.0755 126.563 69.2702 126.563C84.4651 126.563 99.0372 120.526 109.782 109.782C120.526 99.0379 126.562 84.4658 126.562 69.2709C126.562 54.0762 120.526 39.5039 109.782 28.7596C99.0372 18.0153 84.4651 11.9792 69.2702 11.9792C54.0755 11.9792 39.5032 18.0153 28.7588 28.7596C18.0146 39.5039 11.9785 54.0762 11.9785 69.2709Z" stroke="#1D1D1B" stroke-width="12.5"/>
<path d="M109.375 109.375L138.021 138.021" stroke="#1D1D1B" stroke-width="12.5"/>
<defs>
<linearGradient id="paint0_linear_1925_5226" x1="126.562" y1="11.9792" x2="-11.7444" y2="70.4136" gradientUnits="userSpaceOnUse">
<stop stop-color="#6157FF"/>
<stop offset="0.67" stop-color="#FFFACD"/>
</linearGradient>
</defs>
</svg>
