<svg width="100" height="100" viewBox="0 0 100 100" fill="none" xmlns="http://www.w3.org/2000/svg">
<path d="M28.9933 38.5417C21.5673 38.5417 14.4772 39.9798 7.98633 42.5927V53.8195H50.0002V42.5927C43.5095 39.9798 36.4192 38.5417 28.9933 38.5417Z" fill="#FFFACD"/>
<path d="M71.0069 38.5417C63.5808 38.5417 56.4908 39.9798 50 42.5927V53.8195H92.0139V42.5927C85.5231 39.9798 78.4331 38.5417 71.0069 38.5417Z" fill="#FFFACD"/>
<path d="M38.5462 17.5385C38.5462 22.8141 34.2694 27.0909 28.9938 27.0909C23.7182 27.0909 19.4414 22.8141 19.4414 17.5385C19.4414 12.2628 23.7182 7.98608 28.9938 7.98608C34.2694 7.98608 38.5462 12.2628 38.5462 17.5385Z" fill="#FFFACD"/>
<path d="M80.5599 17.5385C80.5599 22.8141 76.2833 27.0909 71.0075 27.0909C65.7321 27.0909 61.4551 22.8141 61.4551 17.5385C61.4551 12.2628 65.7321 7.98608 71.0075 7.98608C76.2833 7.98608 80.5599 12.2628 80.5599 17.5385Z" fill="#FFFACD"/>
<path d="M50.0011 80.5554C42.5749 80.5554 35.4851 81.9934 28.9941 84.6063V95.8332H71.008V84.6063C64.5173 81.9934 57.4272 80.5554 50.0011 80.5554Z" fill="#FFFACD"/>
<path d="M59.5521 59.5524C59.5521 64.8282 55.2754 69.1049 49.9996 69.1049C44.7242 69.1049 40.4473 64.8282 40.4473 59.5524C40.4473 54.2766 44.7242 50 49.9996 50C55.2754 50 59.5521 54.2766 59.5521 59.5524Z" fill="#FFFACD"/>
<path d="M59.5521 59.5524C59.5521 64.8282 55.2754 69.1049 49.9996 69.1049C44.7242 69.1049 40.4473 64.8282 40.4473 59.5524C40.4473 54.2766 44.7242 50 49.9996 50C55.2754 50 59.5521 54.2766 59.5521 59.5524Z" stroke="#1D1D1B" stroke-width="8.33333"/>
<path d="M28.9941 95.8332V84.6063C35.4851 81.9934 42.5753 80.5554 50.0011 80.5554C57.4269 80.5554 64.5173 81.9934 71.008 84.6063V95.8332" stroke="#1D1D1B" stroke-width="8.33333"/>
<path d="M7.98633 53.8195V42.5927C14.4772 39.9798 21.5673 38.5417 28.9933 38.5417C33.5994 38.5417 38.0764 39.095 42.3613 40.1388" stroke="#1D1D1B" stroke-width="8.33333"/>
<path d="M38.5462 17.5385C38.5462 22.8141 34.2694 27.0909 28.9938 27.0909C23.7182 27.0909 19.4414 22.8141 19.4414 17.5385C19.4414 12.2628 23.7182 7.98608 28.9938 7.98608C34.2694 7.98608 38.5462 12.2628 38.5462 17.5385Z" stroke="#1D1D1B" stroke-width="8.33333"/>
<path d="M92.0137 53.8195V42.5927C85.5229 39.9798 78.4329 38.5417 71.0067 38.5417C66.4005 38.5417 61.9237 39.095 57.6387 40.1388" stroke="#1D1D1B" stroke-width="8.33333"/>
<path d="M80.5599 17.5385C80.5599 22.8141 76.2833 27.0909 71.0075 27.0909C65.7321 27.0909 61.4551 22.8141 61.4551 17.5385C61.4551 12.2628 65.7321 7.98608 71.0075 7.98608C76.2833 7.98608 80.5599 12.2628 80.5599 17.5385Z" stroke="#1D1D1B" stroke-width="8.33333"/>
</svg>
