<svg width="150" height="150" viewBox="0 0 150 150" fill="none" xmlns="http://www.w3.org/2000/svg">
<path d="M71.875 137.5L131.25 118.75V116.299C131.25 107.298 123.952 100 114.951 100C113.326 100 111.711 100.243 110.158 100.721L71.875 112.5V93.75L30.1739 84.8137C28.8117 84.5219 27.4226 84.375 26.0295 84.375C15.1056 84.375 6.25 93.2306 6.25 104.154V137.5H71.875Z" fill="#FFFACD"/>
<path d="M105.177 17.6778L109.375 21.875L113.573 17.6774C116.888 14.3624 121.384 12.5 126.072 12.5C135.835 12.5 143.75 20.4148 143.749 30.1779C143.749 34.8662 141.887 39.3624 138.572 42.6775L109.375 71.875L80.1775 42.6777C76.8625 39.3624 75 34.8661 75 30.1777C75 20.4146 82.9144 12.5 92.6775 12.5C97.3662 12.5 101.862 14.3625 105.177 17.6778Z" fill="white"/>
<path d="M105.177 17.6778L109.375 21.875L113.573 17.6774C116.888 14.3624 121.384 12.5 126.072 12.5C135.835 12.5 143.75 20.4148 143.749 30.1779C143.749 34.8662 141.887 39.3624 138.572 42.6775L109.375 71.875L80.1775 42.6777C76.8625 39.3624 75 34.8661 75 30.1777C75 20.4146 82.9144 12.5 92.6775 12.5C97.3662 12.5 101.862 14.3625 105.177 17.6778Z" stroke="#1D1D1B" stroke-width="12.5"/>
<path d="M1.5625 137.5H71.875L131.25 118.75V116.299C131.25 107.298 123.952 100 114.951 100C113.326 100 111.711 100.243 110.158 100.721L72.9531 112.168C72.2381 112.388 71.495 112.5 70.7469 112.5H40.6249" stroke="#1D1D1B" stroke-width="12.5"/>
<path d="M71.875 112.5V93.75L30.1739 84.8137C28.8117 84.5219 27.4226 84.375 26.0295 84.375C15.1056 84.375 6.25 93.2306 6.25 104.154V106.25" stroke="#1D1D1B" stroke-width="12.5"/>
</svg>
