<svg width="100" height="100" viewBox="0 0 100 100" fill="none" xmlns="http://www.w3.org/2000/svg">
<path d="M7.98633 50.0002C7.98633 61.143 12.4128 71.8294 20.2919 79.7085C28.171 87.5877 38.8574 92.0141 50.0002 92.0141C61.143 92.0141 71.8294 87.5877 79.7085 79.7085C87.5877 71.8294 92.0141 61.143 92.0141 50.0002C92.0141 38.8574 87.5877 28.171 79.7085 20.2919C71.8294 12.4128 61.143 7.98633 50.0002 7.98633C38.8574 7.98633 28.171 12.4128 20.2919 20.2919C12.4128 28.171 7.98633 38.8574 7.98633 50.0002Z" fill="#FFFACD"/>
<path d="M38.5423 42.3615V34.7227H27.084" stroke="#1D1D1B" stroke-width="8.33333"/>
<path d="M69.097 42.3615V34.7227H57.6387" stroke="#1D1D1B" stroke-width="8.33333"/>
<path d="M7.98633 50.0002C7.98633 61.143 12.4128 71.8294 20.2919 79.7085C28.171 87.5877 38.8574 92.0141 50.0002 92.0141C61.143 92.0141 71.8294 87.5877 79.7085 79.7085C87.5877 71.8294 92.0141 61.143 92.0141 50.0002C92.0141 38.8574 87.5877 28.171 79.7085 20.2919C71.8294 12.4128 61.143 7.98633 50.0002 7.98633C38.8574 7.98633 28.171 12.4128 20.2919 20.2919C12.4128 28.171 7.98633 38.8574 7.98633 50.0002Z" stroke="#1D1D1B" stroke-width="8.33333"/>
<path d="M69.0968 72.917C69.0968 62.37 60.5466 53.8198 49.9996 53.8198C39.4525 53.8198 30.9023 62.37 30.9023 72.917" stroke="#1D1D1B" stroke-width="8.33333"/>
</svg>
