<svg width="200" height="200" viewBox="0 0 200 200" fill="none" xmlns="http://www.w3.org/2000/svg">
<path d="M15.9727 31.25H184.028V78.3874C175.127 81.5333 168.75 90.0221 168.75 100C168.75 109.978 175.127 118.467 184.028 121.613V168.75H15.9727V121.613C24.8734 118.467 31.2504 109.978 31.2504 100C31.2504 90.0221 24.8734 81.5333 15.9727 78.3874V31.25Z" fill="#FFFACD"/>
<path d="M100.002 69.4443L111.142 88.5408L130.239 93.3151L117.508 107.638L120.69 129.918L100.002 120.369L79.3141 129.918L82.4968 107.638L69.7656 93.3151L88.8622 88.5408L100.002 69.4443Z" fill="white"/>
<path d="M100.002 69.4443L111.142 88.5408L130.239 93.3151L117.508 107.638L120.69 129.918L100.002 120.369L79.3141 129.918L82.4968 107.638L69.7656 93.3151L88.8622 88.5408L100.002 69.4443Z" stroke="#1D1D1B" stroke-width="16.6667"/>
<path d="M15.9727 31.25H184.028V78.3874C175.127 81.5333 168.75 90.0221 168.75 100C168.75 109.978 175.127 118.467 184.028 121.613V168.75H15.9727V121.613C24.8734 118.467 31.2504 109.978 31.2504 100C31.2504 90.0221 24.8734 81.5333 15.9727 78.3874V31.25Z" stroke="#1D1D1B" stroke-width="16.6667"/>
</svg>
