<svg width="100" height="100" viewBox="0 0 100 100" fill="none" xmlns="http://www.w3.org/2000/svg">
<path d="M47.4359 35.9767L50.0011 38.5417L52.5662 35.9765C54.5921 33.9506 57.3398 32.8125 60.2047 32.8125C66.1711 32.8125 71.008 37.6493 71.0076 43.6158C71.0076 46.4808 69.8695 49.2285 67.8436 51.2543L50.0011 69.0972L32.1582 51.2543C30.1323 49.2285 28.9941 46.4808 28.9941 43.6154C28.9941 37.6492 33.8308 32.8125 39.7971 32.8125C42.6624 32.8125 45.4101 33.9507 47.4359 35.9767Z" fill="#FFFACD"/>
<path d="M47.4359 35.9767L50.0011 38.5417L52.5662 35.9765C54.5921 33.9506 57.3398 32.8125 60.2047 32.8125C66.1711 32.8125 71.008 37.6493 71.0076 43.6158C71.0076 46.4808 69.8695 49.2285 67.8436 51.2543L50.0011 69.0972L32.1582 51.2543C30.1323 49.2285 28.9941 46.4808 28.9941 43.6154C28.9941 37.6492 33.8308 32.8125 39.7971 32.8125C42.6624 32.8125 45.4101 33.9507 47.4359 35.9767Z" stroke="#1D1D1B" stroke-width="8.33333"/>
<path d="M7.98633 50C7.98633 26.7964 26.7966 7.98608 50.0002 7.98608C67.8141 7.98608 83.0384 19.0726 89.1499 34.7222" stroke="#1D1D1B" stroke-width="8.33333"/>
<path d="M92.0133 50C92.0133 73.2035 73.2029 92.0139 49.9994 92.0139C32.1856 92.0139 16.9613 80.9276 10.8496 65.2778" stroke="#1D1D1B" stroke-width="8.33333"/>
<path d="M92.0141 19.4443V34.7221H76.7363" stroke="#1D1D1B" stroke-width="8.33333"/>
<path d="M7.98633 80.5556V65.2778H23.2641" stroke="#1D1D1B" stroke-width="8.33333"/>
</svg>
