<svg width="100" height="100" viewBox="0 0 100 100" fill="none" xmlns="http://www.w3.org/2000/svg">
<path d="M69.0987 7.98608H30.9043V92.0139H69.0987V7.98608Z" fill="#FF4500"/>
<path d="M21.4238 50.0688C21.4238 53.8216 22.163 57.5376 23.5991 61.0048C25.0353 64.4719 27.1402 67.6222 29.7939 70.2758C32.4475 72.9295 35.5978 75.0344 39.0649 76.4706C42.5321 77.9067 46.2481 78.6459 50.0009 78.6459C53.7537 78.6459 57.4698 77.9067 60.9369 76.4706C64.404 75.0344 67.5543 72.9295 70.208 70.2758C72.8616 67.6222 74.9666 64.4719 76.4027 61.0048C77.8388 57.5376 78.578 53.8216 78.578 50.0688C78.578 42.4897 75.5672 35.221 70.208 29.8617C64.8487 24.5025 57.58 21.4917 50.0009 21.4917C42.4218 21.4917 35.1531 24.5025 29.7939 29.8617C24.4346 35.221 21.4238 42.4897 21.4238 50.0688Z" fill="white"/>
<path d="M50 34.7222V49.9999H61.4583" stroke="#1D1D1B" stroke-width="8.33333"/>
<path d="M30.9043 71.3828V92.0143H69.0987V71.3828" stroke="#1D1D1B" stroke-width="8.33333"/>
<path d="M30.9045 28.7088L30.9043 7.98608H69.0986L69.099 28.7088" stroke="#1D1D1B" stroke-width="8.33333"/>
<path d="M21.4238 50.0688C21.4238 53.8216 22.163 57.5376 23.5991 61.0048C25.0353 64.4719 27.1402 67.6222 29.7939 70.2758C32.4475 72.9295 35.5978 75.0344 39.0649 76.4706C42.5321 77.9067 46.2481 78.6459 50.0009 78.6459C53.7537 78.6459 57.4698 77.9067 60.9369 76.4706C64.404 75.0344 67.5543 72.9295 70.208 70.2758C72.8616 67.6222 74.9666 64.4719 76.4027 61.0048C77.8388 57.5376 78.578 53.8216 78.578 50.0688C78.578 42.4897 75.5672 35.221 70.208 29.8617C64.8487 24.5025 57.58 21.4917 50.0009 21.4917C42.4218 21.4917 35.1531 24.5025 29.7939 29.8617C24.4346 35.221 21.4238 42.4897 21.4238 50.0688Z" stroke="#1D1D1B" stroke-width="8.33333"/>
</svg>
