<svg width="100" height="100" viewBox="0 0 100 100" fill="none" xmlns="http://www.w3.org/2000/svg">
<path d="M44.516 17.9739L50.0002 23.4585L55.4852 17.9735C59.8168 13.6418 65.6918 11.2085 71.8181 11.2085C84.5752 11.2085 94.9168 21.5502 94.9168 34.3077C94.9168 40.4335 92.4831 46.3089 88.1514 50.6406L50.0002 88.7918L11.8489 50.641C7.51725 46.3089 5.0835 40.4331 5.0835 34.3072C5.0835 21.5502 15.4252 11.2085 28.1822 11.2085C34.3085 11.2085 40.1839 13.6418 44.516 17.9739Z" fill="#FFFACD"/>
<path d="M44.516 17.9739L50.0002 23.4585L55.4852 17.9735C59.8168 13.6418 65.6918 11.2085 71.8181 11.2085C84.5752 11.2085 94.9168 21.5502 94.9168 34.3077C94.9168 40.4335 92.4831 46.3089 88.1514 50.6406L50.0002 88.7918L11.8489 50.641C7.51725 46.3089 5.0835 40.4331 5.0835 34.3072C5.0835 21.5502 15.4252 11.2085 28.1822 11.2085C34.3085 11.2085 40.1839 13.6418 44.516 17.9739Z" stroke="#1D1D1B" stroke-width="8.33333"/>
<path d="M50.0004 23.4585L37.75 35.7085L50.0004 47.9585L37.75 60.2085" stroke="#1D1D1B" stroke-width="8.33333"/>
</svg>
