<svg width="200" height="200" viewBox="0 0 200 200" fill="none" xmlns="http://www.w3.org/2000/svg">
<g clip-path="url(#clip0_1722_9047)">
<path d="M94.9081 73.2023L100.001 78.5087L105.093 73.2018C109.099 69.0268 114.636 66.6666 120.421 66.6666H121.043C132.433 66.6666 141.667 75.9005 141.666 87.2908C141.666 92.7608 139.494 98.0058 135.626 101.873L100.001 137.5L64.3746 101.874C60.5068 98.0058 58.334 92.7608 58.334 87.2908C58.334 75.9003 67.5677 66.6666 78.958 66.6666H79.5792C85.3657 66.6666 90.9023 69.027 94.9081 73.2023Z" stroke="#1D1D1B" stroke-width="16.6667"/>
<path d="M19.1182 143.137C12.1013 129.98 8.33398 115.184 8.33398 100C8.33398 75.6885 17.9917 52.3727 35.1826 35.1819C52.3734 17.9911 75.6891 8.33331 100.001 8.33331C124.312 8.33331 147.628 17.9911 164.819 35.1819C182.01 52.3727 191.667 75.6885 191.667 100C191.667 124.312 182.01 147.627 164.819 164.818C147.628 182.009 124.312 191.667 100.001 191.667C84.9373 191.667 70.2555 187.959 57.1765 181.048L12.5007 187.5L19.1182 143.137Z" stroke="#1D1D1B" stroke-width="16.6667"/>
</g>
<defs>
<clipPath id="clip0_1722_9047">
<rect width="200" height="200" fill="white"/>
</clipPath>
</defs>
</svg>
