<svg width="22" height="19" viewBox="0 0 22 19" fill="none" xmlns="http://www.w3.org/2000/svg">
<g id="Icon/Discord">
<path id="vector" d="M19.2752 3.14678C17.7615 1.86678 15.945 1.22678 14.0275 1.12012L13.7248 1.44012C15.4404 1.86678 16.9541 2.72012 18.367 3.89345C16.6514 2.93345 14.7339 2.29345 12.7156 2.08012C12.1101 1.97345 11.6055 1.97345 11 1.97345C10.3945 1.97345 9.88991 1.97345 9.2844 2.08012C7.26606 2.29345 5.34862 2.93345 3.63303 3.89345C5.04587 2.72012 6.55963 1.86678 8.27523 1.44012L7.97248 1.12012C6.05505 1.22678 4.23853 1.86678 2.72477 3.14678C1.00917 6.56012 0.100917 10.4001 0 14.3468C1.51376 16.0535 3.63303 17.1201 5.85321 17.1201C5.85321 17.1201 6.55963 16.2668 7.06422 15.5201C5.75229 15.2001 4.54128 14.4535 3.73395 13.2801C4.44037 13.7068 5.14679 14.1335 5.85321 14.4535C6.76147 14.8801 7.66972 15.0935 8.57798 15.3068C9.38532 15.4135 10.1927 15.5201 11 15.5201C11.8073 15.5201 12.6147 15.4135 13.422 15.3068C14.3303 15.0935 15.2385 14.8801 16.1468 14.4535C16.8532 14.1335 17.5596 13.7068 18.2661 13.2801C17.4587 14.4535 16.2477 15.2001 14.9358 15.5201C15.4404 16.2668 16.1468 17.1201 16.1468 17.1201C18.367 17.1201 20.4862 16.0535 22 14.3468C21.8991 10.4001 20.9908 6.56012 19.2752 3.14678ZM7.66972 12.4268C6.66055 12.4268 5.75229 11.4668 5.75229 10.2935C5.75229 9.12012 6.66055 8.16012 7.66972 8.16012C8.6789 8.16012 9.58716 9.12012 9.58716 10.2935C9.58716 11.4668 8.6789 12.4268 7.66972 12.4268ZM14.3303 12.4268C13.3211 12.4268 12.4128 11.4668 12.4128 10.2935C12.4128 9.12012 13.3211 8.16012 14.3303 8.16012C15.3394 8.16012 16.2477 9.12012 16.2477 10.2935C16.2477 11.4668 15.3394 12.4268 14.3303 12.4268Z" fill="#1D1D1B"/>
</g>
</svg>
