<svg width="172" height="198" viewBox="0 0 172 198" fill="none" xmlns="http://www.w3.org/2000/svg">
<g id="ghost">
<path id="Rectangle 919" d="M9.3042 85.2173V183.217L34.8692 161.913L60.435 187.478L86 161.913L111.565 187.478L137.131 161.913L162.696 183.217V85.2173C162.696 42.8598 128.358 8.52148 86 8.52148C43.6425 8.52148 9.3042 42.859 9.3042 85.2173Z" fill="#FFFACD"/>
<path id="Rectangle 919_2" d="M9.3042 85.2173V183.217L34.8692 161.913L60.435 187.478L86 161.913L111.565 187.478L137.131 161.913L162.696 183.217V85.2173C162.696 42.8598 128.358 8.52148 86 8.52148C43.6425 8.52148 9.3042 42.859 9.3042 85.2173Z" stroke="#1D1D1B" stroke-width="16.6667"/>
<path id="Vector 4211" d="M51.9136 93.739V85.2173H60.4352V93.739H51.9136Z" stroke="#1D1D1B" stroke-width="16.6667"/>
<path id="Vector 4212" d="M111.565 93.739V85.2173H120.087V93.739H111.565Z" stroke="#1D1D1B" stroke-width="16.6667"/>
</g>
</svg>
