<svg width="150" height="150" viewBox="0 0 150 150" fill="none" xmlns="http://www.w3.org/2000/svg">
<path d="M75 5.78613C37.0156 5.78613 6.25 36.5518 6.25 74.5361C6.25 104.958 25.9297 130.653 53.2578 139.763C56.6953 140.364 57.9844 138.302 57.9844 136.497C57.9844 134.864 57.8984 129.45 57.8984 123.692C40.625 126.872 36.1562 119.481 34.7812 115.614C34.0078 113.638 30.6562 107.536 27.7344 105.903C25.3281 104.614 21.8906 101.435 27.6484 101.349C33.0625 101.263 36.9297 106.333 38.2188 108.396C44.4062 118.794 54.2891 115.872 58.2422 114.067C58.8438 109.599 60.6484 106.591 62.625 104.872C47.3281 103.153 31.3438 97.2236 31.3438 70.9268C31.3438 63.4502 34.0078 57.2627 38.3906 52.4502C37.7031 50.7314 35.2969 43.6846 39.0781 34.2314C39.0781 34.2314 44.8359 32.4268 57.9844 41.2783C63.4844 39.7314 69.3281 38.958 75.1719 38.958C81.0156 38.958 86.8594 39.7314 92.3594 41.2783C105.508 32.3408 111.266 34.2314 111.266 34.2314C115.047 43.6846 112.641 50.7314 111.953 52.4502C116.336 57.2627 119 63.3643 119 70.9268C119 97.3096 102.93 103.153 87.6328 104.872C90.125 107.021 92.2734 111.146 92.2734 117.591C92.2734 126.786 92.1875 134.177 92.1875 136.497C92.1875 138.302 93.4766 140.45 96.9141 139.763C110.562 135.155 122.422 126.384 130.824 114.683C139.225 102.982 143.746 88.941 143.75 74.5361C143.75 36.5518 112.984 5.78613 75 5.78613Z" fill="#1D1D1B"/>
</svg>
