<svg width="22" height="22" viewBox="0 0 22 22" fill="none" xmlns="http://www.w3.org/2000/svg">
<g id="Icon/Github">
<path id="Vector" d="M7.87193 19.3702C6.68493 19.5232 5.85279 19.358 5.26832 19.0303C4.6101 18.6612 4.32761 18.1206 4.19719 17.7567C4.14587 17.6278 3.99666 17.3331 3.80191 17.0369C3.70463 16.889 3.60121 16.7488 3.49937 16.6338C3.39535 16.5163 3.30928 16.4438 3.24822 16.4091C3.13081 16.3459 3.00283 16.2612 2.89028 16.1663C2.78535 16.078 2.65517 15.949 2.58327 15.7911C2.54533 15.7078 2.51065 15.5879 2.5348 15.4504C2.56082 15.3022 2.64558 15.1872 2.75058 15.1101C2.92905 14.979 3.17779 14.9469 3.41789 14.9433M7.87193 19.3702L21.6071 11.0461C21.6066 13.2686 20.909 15.4351 19.6127 17.2404C18.3216 19.0384 16.5014 20.3881 14.4065 21.1013C14.2414 21.1297 14.1919 21.0851 14.1848 21.0787L14.1847 21.0786C14.1653 21.0611 14.1429 21.0198 14.1429 20.9598C14.1429 20.8371 14.1444 20.6248 14.1464 20.3402C14.1474 20.1982 14.1486 20.0382 14.1497 19.8624C14.1532 19.336 14.1566 18.6716 14.1566 17.9348C14.1566 17.2132 14.0005 16.6323 13.7541 16.1941C14.793 16.0175 15.851 15.678 16.7009 14.965C17.7594 14.0772 18.4329 12.6652 18.4329 10.4686C18.4329 9.2483 18.0301 8.23753 17.3584 7.42669C17.5157 6.91397 17.7159 5.82305 17.1673 4.45143L17.0992 4.28126L16.9251 4.22408L16.8025 4.59733C16.9251 4.22408 16.9247 4.22396 16.9243 4.22383L16.9235 4.22357L16.9219 4.22304L16.9183 4.22192L16.9101 4.21945C16.9042 4.21772 16.8973 4.21581 16.8894 4.2138C16.8738 4.20977 16.8543 4.20532 16.831 4.20096C16.7844 4.19224 16.7227 4.18395 16.6455 4.18005C16.4908 4.17225 16.2763 4.18222 15.9985 4.24029C15.4698 4.35083 14.7153 4.63488 13.7076 5.29885C12.8435 5.07306 11.9347 4.96072 11.0275 4.96072C10.12 4.96072 9.21083 5.07315 8.34635 5.29912C7.3389 4.64136 6.5852 4.35782 6.05777 4.24571C5.78077 4.18684 5.56695 4.17545 5.41305 4.18182C5.33622 4.18501 5.27482 4.1926 5.22845 4.20072C5.20528 4.20477 5.18594 4.20895 5.17036 4.21274C5.16258 4.21464 5.15574 4.21644 5.14985 4.21808L5.14172 4.22041L5.13818 4.22147L5.13655 4.22198L5.13576 4.22222C5.13538 4.22234 5.135 4.22246 5.2525 4.59733L5.135 4.22246L4.95702 4.27824L4.88774 4.45143C4.33904 5.82317 4.53937 6.91416 4.69665 7.42683C4.02459 8.23971 3.62214 9.26163 3.62214 10.4686C3.62214 12.658 4.29192 14.0696 5.34637 14.9592C6.19396 15.6742 7.24996 16.0165 8.28918 16.1941C8.14778 16.4458 8.03551 16.7452 7.96696 17.0919C7.68079 17.199 7.2906 17.2954 6.88691 17.2583C6.41118 17.2146 5.88188 16.9841 5.45261 16.2627L5.45269 16.2626L5.44814 16.2554C5.33151 16.0688 5.09986 15.7473 4.76943 15.47C4.43986 15.1934 3.97966 14.9345 3.41789 14.9433M7.87193 19.3702C7.87321 19.6656 7.8755 19.9445 7.87779 20.1867C7.87885 20.2997 7.87991 20.4044 7.88087 20.4987C7.88302 20.7108 7.88464 20.8711 7.88464 20.9598C7.88464 21.0179 7.86347 21.0551 7.84515 21.0714C7.83658 21.079 7.78359 21.1238 7.61552 21.0996C3.41392 19.6851 0.392857 15.728 0.392857 11.0461C0.392857 5.18555 5.13947 0.438939 11 0.438939C16.8605 0.438939 21.6071 5.1855 21.6071 11.046L7.87193 19.3702ZM3.41789 14.9433L3.42375 15.3361M3.41789 14.9433C3.41776 14.9433 3.41764 14.9433 3.41751 14.9433L3.42375 15.3361M3.42375 15.3361C4.29 15.3223 4.90875 16.1336 5.115 16.4636L3.4375 16.0648C3.0525 15.8586 2.5025 15.3498 3.42375 15.3361Z" fill="#1D1D1B" stroke="#1D1D1B" stroke-width="0.785714"/>
</g>
</svg>
