<svg width="111" height="40" viewBox="0 0 111 40" fill="none" xmlns="http://www.w3.org/2000/svg">
<path d="M8.1375 17.2914H16.1751V11.0474H23.3212V28.9476H16.1751V21.8024H8.1375V28.9476H0.986328V11.0474H8.1375V17.2914Z" fill="#1D1D1B"/>
<path d="M41.7437 24.9071C44.0724 24.9071 45.4195 24.1841 45.4195 21.8767V11.0474H52.5707V22.154C52.5707 27.8434 49.0952 29.5765 41.7437 29.5765C34.3923 29.5765 30.9168 27.8434 30.9168 22.154V11.0474H38.068V21.8767C38.068 24.1841 39.4151 24.9071 41.7437 24.9071Z" fill="#1D1D1B"/>
<path d="M67.1059 16.6923L75.6493 17.9401C79.2499 18.4699 81.4834 20.1238 81.4834 23.1542C81.4834 27.5166 77.8828 29.5715 69.8452 29.5715C64.3466 29.5715 58.3372 28.8189 58.3122 23.5553H66.9307C66.9557 24.1544 67.1811 24.5555 67.6919 24.8328C68.2227 25.0853 69.0039 25.2091 70.1207 25.2091C72.3491 25.2091 72.9601 24.61 72.9601 23.7583C72.9601 23.2334 72.6296 22.7036 71.6681 22.555L63.5053 21.3518C60.0099 20.822 58.5626 18.8166 58.5626 16.311C58.5626 11.6763 63.1548 10.4235 69.034 10.4235C77.0966 10.4235 80.4168 12.5032 80.6722 16.2912H72.3541C72.3541 15.5633 71.9235 15.1078 71.2624 14.8602C70.6315 14.5879 69.8202 14.4839 69.034 14.4839C66.9006 14.4839 66.1695 15.0087 66.1695 15.7614C66.1695 16.2665 66.3948 16.5883 67.1059 16.6923Z" fill="#1D1D1B"/>
<path d="M95.5554 17.2914H103.588V11.0474H110.739V28.9476H103.588V21.8024H95.5554V28.9476H88.4042V11.0474H95.5554V17.2914Z" fill="#1D1D1B"/>
</svg>
