<svg width="18" height="19" viewBox="0 0 18 19" fill="none" xmlns="http://www.w3.org/2000/svg">
<g id="Icon/linkedin">
<path id="Union" fill-rule="evenodd" clip-rule="evenodd" d="M4.5 3.87012C4.08579 3.87012 3.75 4.2059 3.75 4.62012V13.6201C3.75 14.0343 4.08579 14.3701 4.5 14.3701H13.5C13.9142 14.3701 14.25 14.0343 14.25 13.6201V4.62012C14.25 4.2059 13.9142 3.87012 13.5 3.87012H4.5ZM2.25 4.62012C2.25 3.37748 3.25736 2.37012 4.5 2.37012H13.5C14.7426 2.37012 15.75 3.37748 15.75 4.62012V13.6201C15.75 14.8628 14.7426 15.8701 13.5 15.8701H4.5C3.25736 15.8701 2.25 14.8628 2.25 13.6201V4.62012ZM6 7.62012C6.41421 7.62012 6.75 7.9559 6.75 8.37012V12.1201C6.75 12.5343 6.41421 12.8701 6 12.8701C5.58579 12.8701 5.25 12.5343 5.25 12.1201V8.37012C5.25 7.9559 5.58579 7.62012 6 7.62012ZM6.75 6.12012C6.75 5.7059 6.41421 5.37012 6 5.37012C5.58579 5.37012 5.25 5.7059 5.25 6.12012V6.12762C5.25 6.54183 5.58579 6.87762 6 6.87762C6.41421 6.87762 6.75 6.54183 6.75 6.12762V6.12012ZM9.53033 7.83979C9.39461 7.70406 9.20711 7.62012 9 7.62012C8.58579 7.62012 8.25 7.9559 8.25 8.37012V9.87012V12.1201C8.25 12.5343 8.58579 12.8701 9 12.8701C9.41421 12.8701 9.75 12.5343 9.75 12.1201V9.87012C9.75 9.67121 9.82902 9.48044 9.96967 9.33979C10.1103 9.19913 10.3011 9.12012 10.5 9.12012C10.6989 9.12012 10.8897 9.19913 11.0303 9.33979C11.171 9.48044 11.25 9.67121 11.25 9.87012V12.1201C11.25 12.5343 11.5858 12.8701 12 12.8701C12.4142 12.8701 12.75 12.5343 12.75 12.1201V9.87012C12.75 9.27338 12.5129 8.70108 12.091 8.27913C11.669 7.85717 11.0967 7.62012 10.5 7.62012C10.1612 7.62012 9.83032 7.69652 9.53033 7.83979Z" fill="#1D1D1B"/>
</g>
</svg>
