<svg width="41" height="40" viewBox="0 0 41 40" fill="none" xmlns="http://www.w3.org/2000/svg">
<g clip-path="url(#clip0_749_16795)">
<path d="M13.834 20H27.1673V28.3333H13.834V20Z" fill="white"/>
<path d="M13.834 20H27.1673V28.3333H13.834V20Z" stroke="#1D1D1B" stroke-width="3.33333"/>
<path d="M16.334 19.9999V15C16.334 12.6988 18.1995 10.8333 20.5007 10.8333C22.8018 10.8333 24.6673 12.6988 24.6673 15V19.9999" stroke="#1D1D1B" stroke-width="3.33333"/>
<path d="M38.8337 20C38.8337 24.8623 36.9022 29.5255 33.464 32.9636C30.0258 36.4018 25.3627 38.3333 20.5003 38.3333C15.638 38.3333 10.9749 36.4018 7.53671 32.9636C4.09854 29.5255 2.16699 24.8623 2.16699 20C2.16699 15.1377 4.09854 10.4745 7.53671 7.03634C10.9749 3.59818 15.638 1.66663 20.5003 1.66663C30.5003 1.66663 34.667 8.74996 38.8337 13.3333" stroke="#1D1D1B" stroke-width="3.33333"/>
<path d="M38.8337 6.66663V13.3333H32.167" stroke="#1D1D1B" stroke-width="3.33333"/>
</g>
<defs>
<clipPath id="clip0_749_16795">
<rect width="40" height="40" fill="white" transform="translate(0.5)"/>
</clipPath>
</defs>
</svg>
