<svg width="107" height="40" viewBox="0 0 107 40" fill="none" xmlns="http://www.w3.org/2000/svg">
<path fill-rule="evenodd" clip-rule="evenodd" d="M82.8462 19.6686H78.6424C78.6424 19.6686 78.5834 17.7179 76.6336 17.7179C74.6966 17.7179 74.7321 19.6098 74.7321 20.4019V26.6083H69.8577V18.9595C69.8577 18.9595 69.9873 13.4028 76.7276 13.4028C76.7276 13.4028 81.4369 12.8114 83.4445 17.5286C83.4445 17.5286 84.8544 13.4028 90.5735 13.4028H95.9515C95.9515 13.4028 102.541 13.3555 102.541 19.574H97.256C97.256 19.574 97.1029 18.0369 95.2237 18.0369H91.1495C91.1495 18.0369 88.4713 17.8477 88.4713 20.0228C88.4713 22.198 89.9752 22.3284 91.5248 22.3284H106.451V26.6077H90.421C90.421 26.6077 82.8462 27.2464 82.8462 19.6686ZM55.7071 22.352H61.7901V26.6077H54.5912C54.5912 26.6077 47.7918 26.3129 47.7918 20.354C47.7918 14.3836 53.5928 13.4028 55.9535 13.4028H67.567V26.6083H62.5293V18.0843H55.554C55.554 18.0843 53.3705 18.0491 53.3705 20.1769C53.3705 22.2926 55.3196 22.352 55.7071 22.352ZM7.68834 18.0606H0.900391V13.4028H10.6828C10.6828 13.4028 13.631 13.5447 13.631 16.3228V20.2952L21.2992 13.4028H24.2111C24.2111 13.4028 26.9942 13.3791 26.9942 16.4532V20.3783L34.7449 13.4028H37.822C37.822 13.4028 40.6405 13.5447 40.6405 16.7959V21.7376C40.6405 21.7376 40.6405 22.1986 41.1455 22.1986H47.217V26.6083H38.9143C38.9143 26.6083 35.2739 26.9637 35.2739 23.2158V20.5669C35.2739 20.5669 35.2504 19.9525 34.663 20.5433L28.0401 26.6077H25.1155C25.1155 26.6077 21.745 26.726 21.745 23.2388V20.2952C21.745 20.2952 21.8041 19.739 21.3456 20.2242L14.4528 26.6077H11.6107C11.6107 26.6077 8.45172 26.9158 8.45172 23.3923V18.675C8.45172 18.6757 8.53367 18.0606 7.68834 18.0606Z" fill="#1D1D1B"/>
</svg>
