<svg width="101" height="40" viewBox="0 0 101 40" fill="none" xmlns="http://www.w3.org/2000/svg">
<path fill-rule="evenodd" clip-rule="evenodd" d="M13.2083 3.79889C6.65725 11.3485 0.375996 20.7106 0.313011 27.7084C0.28848 30.3414 1.14508 32.64 3.19971 34.381C6.15668 36.8884 9.41466 37.7726 12.6567 37.7778C17.3945 37.7843 22.0992 35.9086 25.7828 34.4623C31.9865 32.0278 100.562 2.80477 100.562 2.80477C101.224 2.47948 101.1 2.07415 100.272 2.27649C99.9379 2.35847 25.6164 22.123 25.6164 22.123C24.2086 22.5137 22.7539 22.7181 21.291 22.7307C15.5792 22.7639 10.4967 19.6527 10.5378 13.0966C10.5537 10.5313 11.3539 7.4377 13.2083 3.79889Z" fill="#1D1D1B"/>
</svg>
