<svg width="150" height="151" viewBox="0 0 150 151" fill="none" xmlns="http://www.w3.org/2000/svg">
<path d="M79.2012 142.495C104.581 142.495 126.682 128.462 138.171 107.732L82.2637 75.1196L138.171 42.5071C126.682 21.7771 104.581 7.74463 79.2012 7.74463C41.9906 7.74463 11.8262 37.9096 11.8262 75.1196C11.8262 112.33 41.9906 142.495 79.2012 142.495Z" fill="#1D1D1B"/>
<path d="M79.2012 142.495C104.581 142.495 126.682 128.462 138.171 107.732L82.2637 75.1196L138.171 42.5071C126.682 21.7771 104.581 7.74463 79.2012 7.74463C41.9906 7.74463 11.8262 37.9096 11.8262 75.1196C11.8262 112.33 41.9906 142.495 79.2012 142.495Z" stroke="white" stroke-width="12.5"/>
<path d="M63.8887 41.4324H70.0137V47.5574H63.8887V41.4324Z" stroke="white" stroke-width="12.5"/>
</svg>
