<svg width="150" height="150" viewBox="0 0 150 150" fill="none" xmlns="http://www.w3.org/2000/svg">
<path d="M12 142.501L45 7.50146H51C57.6275 7.50146 63 12.874 63 19.5015V67.5015" stroke="#1D1D1B" stroke-width="12.5"/>
<path d="M50.998 109.499V67.499H62.998C69.6255 67.499 74.998 72.8715 74.998 79.499V109.499C74.998 126.067 61.5668 139.499 44.998 139.499H38.998" stroke="#1D1D1B" stroke-width="12.5"/>
<path d="M138 142.501L105 7.50146H99C92.3725 7.50146 87 12.874 87 19.5015V67.5015" stroke="#1D1D1B" stroke-width="12.5"/>
<path d="M99 109.499V67.499H87C80.3725 67.499 75 72.8715 75 79.499V109.499C75 126.067 88.4319 139.499 105 139.499H111" stroke="#1D1D1B" stroke-width="12.5"/>
</svg>
