<svg width="87" height="40" viewBox="0 0 87 40" fill="none" xmlns="http://www.w3.org/2000/svg">
<path fill-rule="evenodd" clip-rule="evenodd" d="M28.1603 28.8732C28.1603 29.5568 28.7401 30.1098 29.4232 30.1265C30.109 30.1098 30.6901 29.5568 30.6895 28.8732L30.6955 6.53589H38.1474V31.1579C38.1474 32.3645 37.1687 33.3493 35.9456 33.3493H22.9102C21.6939 33.3493 20.7037 32.3652 20.7037 31.1579V6.53589H28.1616L28.1603 28.8732ZM43.1059 6.53589H54.3917H65.6822C66.0014 6.53641 66.3174 6.59902 66.6121 6.72013C66.9068 6.84124 67.1744 7.01849 67.3997 7.24173C67.625 7.46498 67.8035 7.72986 67.9251 8.02123C68.0466 8.3126 68.1088 8.62476 68.1081 8.93986V33.3493H60.6421V10.9594C60.6367 10.2731 60.067 9.72941 59.3778 9.72941C58.6819 9.72941 58.1244 10.2598 58.1136 10.9401V33.35H50.6806V10.9407C50.6644 10.2604 50.1055 9.73007 49.4089 9.73007C49.2442 9.72893 49.0809 9.75986 48.9284 9.82108C48.7758 9.88229 48.6369 9.97261 48.5198 10.0869C48.4026 10.2011 48.3094 10.337 48.2455 10.4868C48.1816 10.6367 48.1482 10.7975 48.1474 10.96V33.3493H40.682V8.93986C40.681 8.62485 40.743 8.31274 40.8643 8.02138C40.9856 7.73002 41.1639 7.46513 41.3891 7.24186C41.6142 7.01858 41.8817 6.84131 42.1763 6.72017C42.4709 6.59904 42.7867 6.53641 43.1059 6.53589ZM8.1948 26.6118H15.729C16.0505 26.6121 16.3689 26.5497 16.6659 26.4282C16.9629 26.3067 17.2327 26.1285 17.4598 25.9039C17.6869 25.6792 17.8668 25.4125 17.9892 25.1191C18.1116 24.8256 18.1741 24.5112 18.1732 24.1939V8.95052C18.1732 7.61594 17.1222 6.53589 15.7763 6.53589H0.740234V33.3493H8.1948V26.6118ZM10.6333 10.522C10.6955 10.6759 10.7263 10.8404 10.724 11.006V22.0318C10.7301 22.776 10.1192 23.2917 9.46243 23.2917H8.1948V9.72941H9.46243C9.63025 9.73123 9.79606 9.76573 9.95036 9.83092C10.1046 9.89611 10.2444 9.9907 10.3616 10.1093C10.4788 10.2279 10.5711 10.3681 10.6333 10.522ZM79.4107 26.745V33.4641H87.0003V9.10216C87.0013 8.78756 86.938 8.47588 86.8142 8.18495C86.6905 7.89403 86.5086 7.62957 86.279 7.40671C86.0495 7.18386 85.7767 7.00698 85.4764 6.8862C85.1761 6.76543 84.8541 6.70313 84.5289 6.70287H71.7104C70.3478 6.70287 69.241 7.77217 69.241 9.10216V33.4641H76.8279V26.745H79.4107ZM79.4107 11.1084V23.4314H76.8279V11.1277C76.8331 10.8009 76.9712 10.4893 77.2121 10.2601C77.4531 10.031 77.7776 9.90291 78.1155 9.90347C78.8236 9.90347 79.3921 10.4275 79.4107 11.1084Z" fill="#1D1D1B"/>
</svg>
