<svg width="97" height="40" viewBox="0 0 97 40" fill="none" xmlns="http://www.w3.org/2000/svg">
<path fill-rule="evenodd" clip-rule="evenodd" d="M83.0752 4.75513C82.4247 4.10416 81.5174 3.77893 80.6806 3.77893H16.6759C15.8503 3.77893 14.9435 4.13917 14.3159 4.75513L1.47036 17.6568C0.145465 18.9704 0.168806 21.1096 1.4937 22.4227L14.3509 35.2437C14.9669 35.8602 15.8503 36.2199 16.6759 36.2199H80.704C81.5174 36.2432 82.4242 35.918 83.0752 35.267L95.9319 22.3998C97.2222 21.1096 97.2222 18.9476 95.9319 17.6573L83.0752 4.75513ZM82.1679 33.4298C81.5869 34.0113 80.8197 34.2908 80.052 34.2908V34.2913H17.1057C16.3846 34.267 15.5941 33.9651 15.0364 33.407L3.70252 22.0858C2.55219 20.935 2.52885 19.0638 3.67969 17.9131L15.0136 6.56851C15.5712 6.02257 16.3618 5.7085 17.1062 5.7085H80.052C80.7963 5.73184 81.5869 6.02206 82.1679 6.59185L93.5018 17.9364C94.0546 18.49 94.3651 19.2404 94.3651 20.0227C94.3651 20.8051 94.0546 21.5555 93.5018 22.1091L82.1679 33.4298ZM29.9246 24.2005C31.3028 26.7368 29.6349 29.5766 26.6471 29.5766V29.5761H17.6481C17.1618 29.5522 16.9302 29.3068 16.907 28.8278V26.444C16.9078 26.3349 16.9301 26.227 16.9726 26.1266C17.0151 26.0263 17.0769 25.9354 17.1545 25.8594C17.232 25.7833 17.3238 25.7235 17.4244 25.6835C17.525 25.6435 17.6325 25.624 17.7406 25.6263H23.4272C23.8554 25.6263 23.9717 25.287 23.8094 25.0417C23.1917 24.2578 22.3508 23.3101 21.4396 22.2832C19.5661 20.1717 17.3956 17.7254 16.2578 15.681C15.3316 14.0215 16.0955 10.4221 19.0723 10.4221H27.7007C28.1526 10.4221 28.4883 10.8078 28.5116 11.2403V13.6129C28.5116 14.1154 28.3033 14.3256 27.7704 14.349H22.7325C22.1764 14.349 22.1066 14.7699 22.3038 14.98C23.1051 15.9503 24.0397 16.9826 24.9874 18.0295C26.9162 20.1602 28.8995 22.351 29.9246 24.2005ZM36.5843 21.6065V28.7819C36.5843 29.2145 36.1784 29.5766 35.8204 29.5766H32.3574C31.9979 29.5766 31.6157 29.2145 31.5925 28.8053L31.5697 11.2409C31.5697 10.7853 31.8705 10.4231 32.4266 10.3997H35.7158C36.2021 10.3997 36.5843 10.7848 36.5843 11.2409V17.2241H40.4989V11.2409C40.4989 10.8787 40.7886 10.4231 41.3791 10.3997H44.6804C45.2243 10.3997 45.514 10.7848 45.514 11.2409L45.5373 28.7819C45.5373 29.2609 45.1551 29.5766 44.7264 29.5766H41.2633C40.9504 29.5766 40.4756 29.191 40.4756 28.7819V21.6065H36.5843ZM75.1747 29.5766H64.3456C63.9401 29.5532 63.5352 29.1206 63.5119 28.7819V11.2409C63.5119 10.8552 63.9401 10.4456 64.3689 10.4226H75.1514C75.6727 10.4226 75.9386 10.7149 75.9386 11.2174V13.6134C75.9618 14.046 75.5801 14.3495 75.2207 14.3495H68.7232V17.7031H72.9972C73.4255 17.7495 73.7844 18.0887 73.7611 18.4509V20.8816C73.7844 21.2443 73.4725 21.6529 73.0432 21.6295H68.7232V25.6028H75.1979C75.6489 25.6028 75.9851 25.942 75.9851 26.421V28.7819C75.9851 29.366 75.6489 29.5532 75.1747 29.5766ZM81.4284 29.5532H78.2323C77.8496 29.5532 77.4674 29.2609 77.4446 28.8053V11.2174C77.4446 10.7149 77.7333 10.4456 78.2551 10.4226H81.3819C81.8339 10.4226 82.1469 10.7848 82.1701 11.2174V28.8053C82.1701 29.2843 81.8572 29.5532 81.4284 29.5532ZM47.5176 13.1457C47.3093 17.7047 47.3093 22.2711 47.5176 26.8302C47.5176 28.034 48.8376 29.6001 50.239 29.6001H58.7405C60.1884 29.6001 61.3931 28.1509 61.3931 26.8302C61.6247 22.1671 61.6247 17.6097 61.3931 13.1222C61.3583 11.9418 59.9563 10.4226 58.7405 10.4226H50.2622C48.7804 10.4696 47.5641 12.0356 47.5176 13.1457ZM55.7986 25.814C54.8836 25.8604 54.0029 25.8604 53.146 25.814C52.8335 25.79 52.5211 25.4982 52.4978 24.9024C52.3123 21.63 52.2314 18.3581 52.4978 15.0744C52.5443 14.5016 52.7875 14.2093 53.146 14.1623C54.0034 14.069 54.9068 14.069 55.7986 14.1389C56.0883 14.1389 56.3199 14.5245 56.3426 15.0739C56.5625 18.3576 56.5625 21.6065 56.3426 24.9019C56.3199 25.3814 56.1808 25.7905 55.7986 25.814Z" fill="#1D1D1B"/>
</svg>
