<svg width="110" height="40" viewBox="0 0 110 40" fill="none" xmlns="http://www.w3.org/2000/svg">
<path d="M74.931 12.9638H79.2596V13.8027C81.8645 12.7382 84.3953 12.2284 86.4461 14.5381C87.6143 14.0437 88.6776 13.3979 89.8303 13.1291C93.1852 12.3334 95.52 14.3651 95.1018 17.7903C94.6836 21.2155 94.0216 24.6268 93.4691 28.0597H89.0819C89.3211 26.5302 89.5448 25.047 89.801 23.5623C90.0695 21.9138 90.355 20.2638 90.6251 18.6184C90.6229 18.5928 90.6277 18.5672 90.6389 18.5442C90.8041 17.299 90.3843 16.355 89.5464 16.1155C88.6328 15.8606 87.4955 16.3704 87.0912 17.4936C86.6869 18.6168 86.5356 19.8111 86.3196 20.9868C85.9446 23.1915 85.6159 25.424 85.2255 27.6302C85.1875 27.7395 85.1245 27.8384 85.0414 27.9189C84.9583 27.9994 84.8575 28.0593 84.7471 28.0937C83.4586 28.1385 82.1561 28.1076 80.7781 28.1076C81.0481 26.3989 81.3182 24.7349 81.5867 23.071C81.8413 21.4673 82.1268 19.8775 82.3583 18.2816C82.4925 17.4117 82.1037 16.5574 81.4447 16.2283C80.7858 15.8992 79.9324 16.1078 79.2735 16.752C78.4355 17.5771 78.3908 18.6709 78.2102 19.7199C77.7473 22.5009 77.3121 25.2818 76.8476 28.086H72.4758C73.2998 23.0231 74.1085 18.0313 74.931 12.9638ZM35.4612 26.5456C34.9982 29.4239 34.5476 32.1678 34.0831 34.9565H29.6959C30.8934 27.6101 32.077 20.3101 33.2745 12.9792H37.6618C37.617 13.3531 37.5568 13.6976 37.5275 13.9973C38.4256 13.6528 39.2944 13.1739 40.2219 12.9792C43.3669 12.3041 45.9717 13.9525 46.8575 17.0564C48.1291 21.5075 44.9826 26.8299 40.4472 27.8419C38.6201 28.225 36.9735 27.8496 35.4612 26.5456ZM42.4379 20.0691C42.4533 18.3696 41.8098 17.2511 40.7404 16.8463C39.671 16.4415 38.4349 16.8911 37.5213 18.0004C37.0957 18.5049 36.7768 19.0907 36.5837 19.7221C36.3906 20.3536 36.3274 21.0177 36.3979 21.6743C36.5028 22.7836 36.9673 23.7121 38.0954 24.1015C39.1756 24.4769 40.1015 24.0721 40.8962 23.3383C41.8183 22.493 42.3719 21.319 42.4379 20.0691ZM0.451172 24.3564C1.45424 23.5175 2.42798 22.7079 3.40172 21.8844C3.83535 22.3804 4.21035 22.8887 4.65941 23.3089C5.73963 24.344 7.00967 24.3579 8.36303 23.8945C9.66547 23.4449 10.5034 22.575 10.7426 21.1799C10.8969 20.236 10.6238 19.4418 9.79973 18.9165C9.21641 18.5427 8.58679 18.2414 7.97261 17.9123C7.59916 17.7176 7.21028 17.5369 6.83529 17.3577C1.55917 14.7776 2.42798 8.99318 6.2319 6.32192C8.76271 4.55292 11.383 4.77694 14.0188 6.03764C14.5867 6.30801 15.1113 6.6819 15.7163 7.04188C14.8629 8.10636 14.0697 9.09515 13.2904 10.0546C12.5867 9.74558 11.9278 9.38097 11.2241 9.17085C9.56208 8.66101 8.0652 9.35007 7.30133 10.9105C6.79208 11.9595 7.01584 12.9035 8.0189 13.4891C9.02197 14.0746 10.0559 14.5226 11.059 15.0618C12.9308 16.0676 14.2996 17.4905 14.5928 19.6968C15.0558 23.0849 13.3583 26.0219 10.221 27.4216C6.50042 29.05 2.69958 27.8944 0.451172 24.3564ZM17.9415 12.9638H22.3442C21.8195 16.1711 21.3257 19.3507 20.801 22.5132C20.5911 23.7878 20.9553 24.2822 22.2238 24.3873C23.8102 24.5217 24.5386 23.9238 24.784 22.3788C25.2778 19.2595 25.8025 16.1418 26.3271 12.9638H30.7144C30.415 14.8672 30.1156 16.7412 29.8008 18.6307C29.5909 19.9347 29.3656 21.2386 29.1419 22.5426C28.6481 25.4657 26.7006 27.4309 23.7963 27.9098C22.1482 28.1802 20.5171 28.1941 18.9291 27.6008C16.9971 26.867 15.9801 25.0532 16.3243 22.9984C16.8628 19.6952 17.3875 16.3673 17.9415 12.9638ZM72.0869 21.1645H62.6735C62.5547 22.7234 63.3031 24.2822 64.4266 24.6422C66.2984 25.2602 67.2707 23.998 68.1842 22.6477C69.2181 23.0385 70.2366 23.4201 71.2536 23.8018C69.9959 26.4715 66.2383 29.1242 62.4945 27.8805C59.8588 27.0107 58.6011 24.9574 58.3465 22.2877C57.9452 18.1657 61.0054 13.9834 65.0037 13.0843C68.4774 12.3118 71.5329 14.3202 72.056 17.8737C72.2057 18.915 72.0869 20.0243 72.0869 21.1645ZM63.0717 18.4654H68.4928C68.0438 16.7659 67.1595 15.8714 66.0238 15.8575C64.78 15.842 63.567 16.9065 63.0717 18.4654ZM106.003 22.6477C107.035 23.0385 108.038 23.4201 109.043 23.7878C107.26 27.4448 102.02 29.7545 98.4706 26.8902C96.4336 25.2417 95.8209 22.9922 96.2252 20.5048C96.7792 16.9807 98.7252 14.433 102.154 13.2635C106.092 11.9147 109.716 14.4176 109.97 18.5859C110.03 19.4248 109.986 20.2638 109.986 21.1645H100.477C100.313 22.6338 101.106 24.1772 102.214 24.6422C103.412 25.166 104.446 24.6422 106.003 22.6477ZM106.213 18.5102C106.137 17.1197 105.044 15.8838 103.861 15.842C102.574 15.7972 101.062 17.1615 100.929 18.5102H106.213ZM58.9097 12.9483C58.5208 14.2677 58.1613 15.4821 57.7863 16.7567C57.6254 16.7349 57.4658 16.705 57.3079 16.6671C55.2262 16.0213 53.4299 17.0858 53.0395 19.2595C52.5611 21.9138 52.1568 24.5665 51.7216 27.2208C51.6769 27.4896 51.6167 27.76 51.5673 28.0597H47.2001C48.0242 23.0076 48.8328 18.0004 49.6553 12.9638H53.9978C53.9839 13.3083 53.953 13.6389 53.9237 14.0282C55.436 12.8881 57.098 12.7382 58.9097 12.9483Z" fill="#1D1D1B"/>
</svg>
