<svg width="400" height="393" viewBox="0 0 400 393" fill="none" xmlns="http://www.w3.org/2000/svg">
<path d="M212.16 1.65778H184.387V57.205H212.16V1.65778Z" fill="#06F881"/>
<path d="M239.934 57.205H212.16V112.752H239.934V57.205Z" fill="#06F881"/>
<path d="M239.934 168.299H212.16V223.847H239.934V168.299Z" fill="#06F881"/>
<path d="M212.16 223.847H184.387V279.394H212.16V223.847Z" fill="#06F881"/>
<path d="M212.16 112.752H184.387V168.299H212.16V112.752Z" fill="#06F881"/>
<path d="M212.16 334.941H184.387V390.488H212.16V334.941Z" fill="#06F881"/>
<path d="M239.934 279.394H212.16V334.941H239.934V279.394Z" fill="#06F881"/>
<path d="M147.884 57.5916H137.369V0.970642H147.884C155.973 0.970642 160.422 5.82387 160.422 15.2068V43.3555C160.422 52.8192 155.973 57.5916 147.884 57.5916ZM146.267 9.14024V49.422H147.884C150.23 49.422 151.524 48.0469 151.524 43.8408V14.7214C151.524 10.5962 150.23 9.14024 147.884 9.14024H146.267Z" fill="#1D1D1B"/>
<path d="M119.622 58.5622C112.181 58.5622 107.975 53.9517 107.975 44.7305V13.8317C107.975 4.61056 112.181 0 119.622 0C127.064 0 131.27 4.69144 131.27 13.8317V44.7305C131.27 53.9517 127.064 58.5622 119.622 58.5622ZM119.622 50.3926C121.402 50.3926 122.373 49.0984 122.373 45.2967V13.2655C122.373 9.46378 121.402 8.16959 119.622 8.16959C117.843 8.16959 116.872 9.46378 116.872 13.2655V45.2967C116.872 49.0984 117.843 50.3926 119.622 50.3926Z" fill="#1D1D1B"/>
<path d="M90.6321 58.5622C83.1905 58.5622 78.9844 53.9517 78.9844 44.7305V13.8317C78.9844 4.61056 83.1905 0 90.6321 0C98.0737 0 102.28 4.69144 102.28 13.8317V44.7305C102.28 53.9517 98.0737 58.5622 90.6321 58.5622ZM90.6321 50.3926C92.4116 50.3926 93.3823 49.0984 93.3823 45.2967V13.2655C93.3823 9.46378 92.4116 8.16959 90.6321 8.16959C88.8526 8.16959 87.882 9.46378 87.882 13.2655V45.2967C87.882 49.0984 88.8526 50.3926 90.6321 50.3926Z" fill="#1D1D1B"/>
<path d="M76.5639 57.5916H58.8496V0.970642H67.7472V49.0176H76.5639V57.5916Z" fill="#1D1D1B"/>
<path d="M41.172 57.5916H30.4141V0.970642H40.8485C49.0181 0.970642 53.3051 5.33855 53.3051 15.2068V18.604C53.3051 23.5381 51.5256 27.0972 48.8563 29.0385C51.7682 30.8989 53.6286 34.5388 53.6286 39.6347V43.3555C53.6286 53.2237 49.4225 57.5916 41.172 57.5916ZM39.3116 8.89757V24.8323H40.8485C43.1942 24.8323 44.4075 23.3764 44.4075 19.2511V14.5597C44.4075 10.4344 43.1942 8.89757 40.8485 8.89757H39.3116ZM39.3116 33.4064V49.6647H41.172C43.5178 49.6647 44.7311 48.1278 44.7311 44.0026V38.9876C44.7311 34.8623 43.5178 33.4064 41.172 33.4064H39.3116Z" fill="#1D1D1B"/>
<path d="M161.638 280.464H143.924V223.843H161.395V232.417H152.821V247.462H160.587V256.036H152.821V271.89H161.638V280.464Z" fill="#1D1D1B"/>
<path d="M140.704 280.464H122.99V223.843H131.888V271.89H140.704V280.464Z" fill="#1D1D1B"/>
<path d="M116.564 280.464H107.666V223.843H116.564V280.464Z" fill="#1D1D1B"/>
<path d="M77.7553 280.464H69.0195L70.9608 223.843H80.9099L84.3072 247.866C84.7116 250.778 85.2778 254.823 85.4396 256.521H85.6823C85.844 254.823 86.3294 250.778 86.7338 247.866L90.2928 223.843H100.323L102.021 280.464H93.1239L93.043 254.904C93.043 251.425 93.1239 241.315 93.2048 238.484H92.9621L88.1898 270.677H82.4468L77.9171 238.484H77.6744C77.7553 241.638 77.8362 252.234 77.8362 254.823L77.7553 280.464Z" fill="#1D1D1B"/>
<path d="M53.3914 281.435C46.0307 281.435 41.9863 276.905 41.9863 268.008V262.669H50.8839V268.574C50.8839 271.971 51.6119 273.265 53.3914 273.265C55.1709 273.265 55.9798 271.971 55.9798 268.412C55.9798 263.721 55.2518 262.588 49.5088 254.419C43.6041 246.168 42.3908 243.094 42.3908 236.623C42.3908 227.564 46.4351 222.873 53.6341 222.873C60.9139 222.873 64.9583 227.564 64.9583 236.542V241.072H56.0607V235.895C56.0607 232.255 55.2518 231.042 53.6341 231.042C52.0163 231.042 51.2883 232.336 51.2883 236.057C51.2883 240.587 51.7737 241.477 57.5166 249.404C63.5023 257.816 64.8774 260.97 64.8774 267.765C64.8774 276.905 60.833 281.435 53.3914 281.435Z" fill="#1D1D1B"/>
<path d="M154.137 168.919H145.239V148.94L136.746 112.298H145.967L149.688 136.807H149.931L154.056 112.298H162.873L154.137 148.94V168.919Z" fill="#1D1D1B"/>
<path d="M121.242 169.889C115.094 169.889 111.131 165.198 111.131 155.977V125.24C111.131 116.1 115.499 111.327 123.021 111.327C130.463 111.327 134.669 116.019 134.669 125.321V130.093H125.771V124.674C125.771 120.872 124.72 119.497 122.94 119.497C121.08 119.497 120.028 120.872 120.028 124.674V156.543C120.028 160.345 121.08 161.72 122.94 161.72C124.801 161.72 125.852 160.345 125.852 156.543V145.381H122.698V137.373H134.669V169.323H130.058L128.926 165.602C127.551 168.191 124.882 169.889 121.242 169.889Z" fill="#1D1D1B"/>
<path d="M101.633 143.844L106.648 168.919H97.4273L93.2212 146.351H91.5226V168.919H82.625V112.298H93.2212C101.391 112.298 105.678 116.666 105.678 126.534V132.196C105.678 138.182 103.898 142.064 101.633 143.844ZM96.7802 132.843V125.887C96.7802 121.762 95.486 120.225 93.2212 120.225H91.5226V138.424H93.2212C95.486 138.424 96.7802 136.968 96.7802 132.843Z" fill="#1D1D1B"/>
<path d="M77.7474 168.919H60.0332V112.298H77.5048V120.872H68.9308V135.917H76.6959V144.491H68.9308V160.345H77.7474V168.919Z" fill="#1D1D1B"/>
<path d="M37.8743 168.919H29.543V112.298H38.5214L46.2057 151.285H46.3675C45.963 143.359 45.7204 138.991 45.6395 135.593L45.235 112.298H53.5664V168.919H44.5879L36.9037 129.931H36.7419L37.4699 145.866L37.8743 168.919Z" fill="#1D1D1B"/>
<path d="M24.6654 168.919H6.95117V112.298H24.4228V120.872H15.8487V135.917H23.6139V144.491H15.8487V160.345H24.6654V168.919Z" fill="#1D1D1B"/>
<path d="M150.075 392.762C142.714 392.762 138.67 388.232 138.67 379.335V373.996H147.567V379.901C147.567 383.298 148.295 384.592 150.075 384.592C151.854 384.592 152.663 383.298 152.663 379.739C152.663 375.048 151.935 373.915 146.192 365.746C140.288 357.495 139.074 354.422 139.074 347.951C139.074 338.891 143.119 334.2 150.318 334.2C157.597 334.2 161.642 338.891 161.642 347.87V352.399H152.744V347.223C152.744 343.583 151.935 342.369 150.318 342.369C148.7 342.369 147.972 343.664 147.972 347.384C147.972 351.914 148.457 352.804 154.2 360.731C160.186 369.143 161.561 372.298 161.561 379.092C161.561 388.232 157.517 392.762 150.075 392.762Z" fill="#1D1D1B"/>
<path d="M130.234 391.791H121.336V343.744H114.865V335.17H136.624V343.744H130.234V391.791Z" fill="#1D1D1B"/>
<path d="M99.9516 392.762C92.5909 392.762 88.3848 388.151 88.3848 378.93V335.17H97.2823V379.496C97.2823 383.298 98.3339 384.592 99.9516 384.592C101.569 384.592 102.54 383.298 102.54 379.496V335.17H111.438V378.93C111.438 388.151 107.151 392.762 99.9516 392.762Z" fill="#1D1D1B"/>
<path d="M66.4681 391.791H58.1367V335.17H67.1152L74.7994 374.158H74.9612C74.5568 366.231 74.3141 361.863 74.2332 358.466L73.8288 335.17H82.1601V391.791H73.1817L65.4974 352.804H65.3357L66.0636 368.739L66.4681 391.791Z" fill="#1D1D1B"/>
<path d="M40.3919 392.762C32.9503 392.762 28.7441 388.151 28.7441 378.93V348.031C28.7441 338.81 32.9503 334.2 40.3919 334.2C47.8335 334.2 52.0396 338.891 52.0396 348.031V378.93C52.0396 388.151 47.8335 392.762 40.3919 392.762ZM40.3919 384.592C42.1714 384.592 43.142 383.298 43.142 379.497V347.465C43.142 343.664 42.1714 342.369 40.3919 342.369C38.6123 342.369 37.6417 343.664 37.6417 347.465V379.497C37.6417 383.298 38.6123 384.592 40.3919 384.592Z" fill="#1D1D1B"/>
<path d="M10.5153 391.791H0V335.17H10.5153C18.604 335.17 23.0528 340.024 23.0528 349.407V377.555C23.0528 387.019 18.604 391.791 10.5153 391.791ZM8.89756 343.34V383.622H10.5153C12.861 383.622 14.1552 382.247 14.1552 378.041V348.921C14.1552 344.796 12.861 343.34 10.5153 343.34H8.89756Z" fill="#1D1D1B"/>
<path d="M358.144 113.201H340.43V56.5799H357.901V65.1539H349.327V80.1989H357.092V88.7729H349.327V104.627H358.144V113.201Z" fill="#1D1D1B"/>
<path d="M328.875 113.201H316.904L310.514 56.5799H319.492L322.242 89.0965C322.647 93.6261 322.97 99.7735 323.051 102.362H323.375C323.536 99.7735 324.022 93.4644 324.426 89.0965L327.5 56.5799H336.397L328.875 113.201Z" fill="#1D1D1B"/>
<path d="M295.984 114.171C288.542 114.171 284.336 109.561 284.336 100.34V69.4409C284.336 60.2198 288.542 55.6093 295.984 55.6093C303.425 55.6093 307.631 60.3007 307.631 69.4409V100.34C307.631 109.561 303.425 114.171 295.984 114.171ZM295.984 106.002C297.763 106.002 298.734 104.708 298.734 100.906V68.8747C298.734 65.073 297.763 63.7788 295.984 63.7788C294.204 63.7788 293.234 65.073 293.234 68.8747V100.906C293.234 104.708 294.204 106.002 295.984 106.002Z" fill="#1D1D1B"/>
<path d="M281.917 113.201H264.203V56.5799H273.101V104.627H281.917V113.201Z" fill="#1D1D1B"/>
<path d="M394.985 199.562L400 224.637H390.779L386.573 202.07H384.874V224.637H375.977V168.016H386.573C394.742 168.016 399.029 172.384 399.029 182.252V187.914C399.029 193.9 397.25 197.783 394.985 199.562ZM390.132 188.561V181.605C390.132 177.48 388.838 175.943 386.573 175.943H384.874V194.143H386.573C388.838 194.143 390.132 192.687 390.132 188.561Z" fill="#1D1D1B"/>
<path d="M354.558 224.637H345.66L353.344 168.016H365.316L372.11 224.637H363.213L362.08 213.394H355.69L354.558 224.637ZM358.036 187.025L356.418 204.82H361.433L359.896 187.025C359.492 183.142 359.249 178.37 359.168 177.318H358.926C358.845 178.127 358.44 182.98 358.036 187.025Z" fill="#1D1D1B"/>
<path d="M329.205 225.608C323.057 225.608 319.094 220.916 319.094 211.695V180.958C319.094 171.818 323.462 167.046 330.984 167.046C338.426 167.046 342.632 171.737 342.632 181.039V185.811H333.734V180.392C333.734 176.59 332.683 175.215 330.903 175.215C329.043 175.215 327.991 176.59 327.991 180.392V212.261C327.991 216.063 329.043 217.438 330.903 217.438C332.764 217.438 333.815 216.063 333.815 212.261V201.099H330.661V193.091H342.632V225.041H338.021L336.889 221.321C335.514 223.909 332.845 225.608 329.205 225.608Z" fill="#1D1D1B"/>
<path d="M301.752 225.608C294.392 225.608 290.186 220.997 290.186 211.776V168.016H299.083V212.342C299.083 216.144 300.135 217.438 301.752 217.438C303.37 217.438 304.341 216.144 304.341 212.342V168.016H313.238V211.776C313.238 220.997 308.951 225.608 301.752 225.608Z" fill="#1D1D1B"/>
<path d="M273.991 225.608C266.63 225.608 262.586 221.078 262.586 212.18V206.842H271.484V212.747C271.484 216.144 272.211 217.438 273.991 217.438C275.771 217.438 276.579 216.144 276.579 212.585C276.579 207.893 275.851 206.761 270.108 198.591C264.204 190.341 262.99 187.267 262.99 180.796C262.99 171.737 267.035 167.046 274.234 167.046C281.513 167.046 285.558 171.737 285.558 180.715V185.245H276.66V180.068C276.66 176.428 275.851 175.215 274.234 175.215C272.616 175.215 271.888 176.509 271.888 180.23C271.888 184.76 272.373 185.65 278.116 193.576C284.102 201.989 285.477 205.143 285.477 211.938C285.477 221.078 281.433 225.608 273.991 225.608Z" fill="#1D1D1B"/>
<path d="M374.052 336.073H365.154V279.452H374.052V303.233H379.471V279.452H388.369V336.073H379.471V311.807H374.052V336.073Z" fill="#1D1D1B"/>
<path d="M355.099 336.073H346.201V288.026H339.73V279.452H361.489V288.026H355.099V336.073Z" fill="#1D1D1B"/>
<path d="M333.45 310.998L338.465 336.073H329.244L325.038 313.506H323.339V336.073H314.441V279.452H325.038C333.207 279.452 337.494 283.82 337.494 293.688V299.351C337.494 305.336 335.715 309.219 333.45 310.998ZM328.597 299.998V293.041C328.597 288.916 327.302 287.379 325.038 287.379H323.339V305.579H325.038C327.302 305.579 328.597 304.123 328.597 299.998Z" fill="#1D1D1B"/>
<path d="M293.023 336.073H284.125L291.809 279.452H303.781L310.575 336.073H301.677L300.545 324.83H294.155L293.023 336.073ZM296.501 298.461L294.883 316.256H299.898L298.361 298.461C297.957 294.578 297.714 289.806 297.633 288.754H297.39C297.31 289.563 296.905 294.416 296.501 298.461Z" fill="#1D1D1B"/>
<path d="M281.917 336.073H264.203V279.452H281.675V288.026H273.101V303.071H280.866V311.645H273.101V327.499H281.917V336.073Z" fill="#1D1D1B"/>
</svg>
