<svg width="400" height="394" viewBox="0 0 400 394" fill="none" xmlns="http://www.w3.org/2000/svg">
<path d="M212.16 2.65784H184.387V58.2051H212.16V2.65784Z" fill="#06F881"/>
<path d="M239.934 58.205H212.16V113.752H239.934V58.205Z" fill="#06F881"/>
<path d="M239.934 169.299H212.16V224.847H239.934V169.299Z" fill="#06F881"/>
<path d="M212.16 224.847H184.387V280.394H212.16V224.847Z" fill="#06F881"/>
<path d="M212.16 113.752H184.387V169.299H212.16V113.752Z" fill="#06F881"/>
<path d="M212.16 335.941H184.387V391.488H212.16V335.941Z" fill="#06F881"/>
<path d="M239.934 280.394H212.16V335.941H239.934V280.394Z" fill="#06F881"/>
<path d="M147.882 58.4828H137.367V1.86188H147.882C155.971 1.86188 160.42 6.7151 160.42 16.098V44.2466C160.42 53.7104 155.971 58.4828 147.882 58.4828ZM146.265 10.0315V50.3132H147.882C150.228 50.3132 151.522 48.9381 151.522 44.732V15.6127C151.522 11.4874 150.228 10.0315 147.882 10.0315H146.265Z" fill="#1D1D1B"/>
<path d="M119.62 59.4534C112.179 59.4534 107.973 54.8428 107.973 45.6217V14.7229C107.973 5.50179 112.179 0.891235 119.62 0.891235C127.062 0.891235 131.268 5.58267 131.268 14.7229V45.6217C131.268 54.8428 127.062 59.4534 119.62 59.4534ZM119.62 51.2838C121.4 51.2838 122.371 49.9896 122.371 46.1879V14.1567C122.371 10.355 121.4 9.06082 119.62 9.06082C117.841 9.06082 116.87 10.355 116.87 14.1567V46.1879C116.87 49.9896 117.841 51.2838 119.62 51.2838Z" fill="#1D1D1B"/>
<path d="M90.6301 59.4534C83.1885 59.4534 78.9824 54.8428 78.9824 45.6217V14.7229C78.9824 5.50179 83.1885 0.891235 90.6301 0.891235C98.0717 0.891235 102.278 5.58267 102.278 14.7229V45.6217C102.278 54.8428 98.0717 59.4534 90.6301 59.4534ZM90.6301 51.2838C92.4097 51.2838 93.3803 49.9896 93.3803 46.1879V14.1567C93.3803 10.355 92.4097 9.06082 90.6301 9.06082C88.8506 9.06082 87.88 10.355 87.88 14.1567V46.1879C87.88 49.9896 88.8506 51.2838 90.6301 51.2838Z" fill="#1D1D1B"/>
<path d="M76.5639 58.4828H58.8496V1.86188H67.7472V49.9087H76.5639V58.4828Z" fill="#1D1D1B"/>
<path d="M41.1701 58.4828H30.4121V1.86188H40.8465C49.0161 1.86188 53.3031 6.22978 53.3031 16.098V19.4952C53.3031 24.4293 51.5236 27.9884 48.8543 29.9297C51.7663 31.7901 53.6267 35.43 53.6267 40.5258V44.2466C53.6267 54.1149 49.4205 58.4828 41.1701 58.4828ZM39.3097 9.7888V25.7235H40.8465C43.1923 25.7235 44.4056 24.2676 44.4056 20.1423V15.4509C44.4056 11.3257 43.1923 9.7888 40.8465 9.7888H39.3097ZM39.3097 34.2976V50.5558H41.1701C43.5158 50.5558 44.7291 49.019 44.7291 44.8937V39.8787C44.7291 35.7535 43.5158 34.2976 41.1701 34.2976H39.3097Z" fill="#1D1D1B"/>
<path d="M154.137 169.919H145.239V149.94L136.746 113.298H145.967L149.688 137.807H149.931L154.056 113.298H162.873L154.137 149.94V169.919Z" fill="#1D1D1B"/>
<path d="M121.242 170.89C115.094 170.89 111.131 166.198 111.131 156.977V126.24C111.131 117.1 115.499 112.327 123.021 112.327C130.463 112.327 134.669 117.019 134.669 126.321V131.093H125.771V125.674C125.771 121.872 124.72 120.497 122.94 120.497C121.08 120.497 120.028 121.872 120.028 125.674V157.543C120.028 161.345 121.08 162.72 122.94 162.72C124.801 162.72 125.852 161.345 125.852 157.543V146.381H122.698V138.373H134.669V170.323H130.058L128.926 166.603C127.551 169.191 124.882 170.89 121.242 170.89Z" fill="#1D1D1B"/>
<path d="M101.633 144.844L106.648 169.919H97.4273L93.2212 147.351H91.5226V169.919H82.625V113.298H93.2212C101.391 113.298 105.678 117.666 105.678 127.534V133.196C105.678 139.182 103.898 143.064 101.633 144.844ZM96.7802 133.843V126.887C96.7802 122.762 95.486 121.225 93.2212 121.225H91.5226V139.425H93.2212C95.486 139.425 96.7802 137.969 96.7802 133.843Z" fill="#1D1D1B"/>
<path d="M77.7474 169.919H60.0332V113.298H77.5048V121.872H68.9308V136.917H76.6959V145.491H68.9308V161.345H77.7474V169.919Z" fill="#1D1D1B"/>
<path d="M37.8743 169.919H29.543V113.298H38.5214L46.2057 152.286H46.3675C45.963 144.359 45.7204 139.991 45.6395 136.593L45.235 113.298H53.5664V169.919H44.5879L36.9037 130.931H36.7419L37.4699 146.866L37.8743 169.919Z" fill="#1D1D1B"/>
<path d="M24.6654 169.919H6.95117V113.298H24.4228V121.872H15.8487V136.917H23.6139V145.491H15.8487V161.345H24.6654V169.919Z" fill="#1D1D1B"/>
<path d="M145.178 281.355H136.199L142.913 252.317L136.846 224.734H146.148L149.546 245.441H149.788L153.428 224.734H162.407L156.178 251.993L162.649 281.355H153.428L149.626 258.869H149.384L145.178 281.355Z" fill="#1D1D1B"/>
<path d="M133.992 281.355H116.277V224.734H133.749V233.308H125.175V248.353H132.94V256.927H125.175V272.781H133.992V281.355Z" fill="#1D1D1B"/>
<path d="M99.8387 282.326C92.4779 282.326 88.4336 277.796 88.4336 268.899V263.56H97.3312V269.465C97.3312 272.862 98.0591 274.156 99.8387 274.156C101.618 274.156 102.427 272.862 102.427 269.303C102.427 264.612 101.699 263.479 95.9561 255.31C90.0513 247.059 88.838 243.985 88.838 237.514C88.838 228.455 92.8824 223.764 100.081 223.764C107.361 223.764 111.405 228.455 111.405 237.434V241.963H102.508V236.786C102.508 233.147 101.699 231.933 100.081 231.933C98.4636 231.933 97.7356 233.227 97.7356 236.948C97.7356 241.478 98.2209 242.368 103.964 250.295C109.95 258.707 111.325 261.861 111.325 268.656C111.325 277.796 107.28 282.326 99.8387 282.326Z" fill="#1D1D1B"/>
<path d="M150.075 393.762C142.714 393.762 138.67 389.232 138.67 380.335V374.996H147.567V380.901C147.567 384.298 148.295 385.592 150.075 385.592C151.854 385.592 152.663 384.298 152.663 380.739C152.663 376.048 151.935 374.915 146.192 366.746C140.288 358.495 139.074 355.422 139.074 348.951C139.074 339.891 143.119 335.2 150.318 335.2C157.597 335.2 161.642 339.891 161.642 348.87V353.399H152.744V348.223C152.744 344.583 151.935 343.369 150.318 343.369C148.7 343.369 147.972 344.664 147.972 348.384C147.972 352.914 148.457 353.804 154.2 361.731C160.186 370.143 161.561 373.298 161.561 380.092C161.561 389.232 157.517 393.762 150.075 393.762Z" fill="#1D1D1B"/>
<path d="M130.234 392.791H121.336V344.744H114.865V336.17H136.624V344.744H130.234V392.791Z" fill="#1D1D1B"/>
<path d="M99.9516 393.762C92.5909 393.762 88.3848 389.151 88.3848 379.93V336.17H97.2823V380.496C97.2823 384.298 98.3339 385.592 99.9516 385.592C101.569 385.592 102.54 384.298 102.54 380.496V336.17H111.438V379.93C111.438 389.151 107.151 393.762 99.9516 393.762Z" fill="#1D1D1B"/>
<path d="M66.4681 392.791H58.1367V336.17H67.1152L74.7994 375.158H74.9612C74.5568 367.231 74.3141 362.863 74.2332 359.466L73.8288 336.17H82.1601V392.791H73.1817L65.4974 353.804H65.3357L66.0636 369.739L66.4681 392.791Z" fill="#1D1D1B"/>
<path d="M40.3919 393.762C32.9503 393.762 28.7441 389.151 28.7441 379.93V349.031C28.7441 339.81 32.9503 335.2 40.3919 335.2C47.8335 335.2 52.0396 339.891 52.0396 349.031V379.93C52.0396 389.151 47.8335 393.762 40.3919 393.762ZM40.3919 385.592C42.1714 385.592 43.142 384.298 43.142 380.497V348.465C43.142 344.664 42.1714 343.369 40.3919 343.369C38.6123 343.369 37.6417 344.664 37.6417 348.465V380.497C37.6417 384.298 38.6123 385.592 40.3919 385.592Z" fill="#1D1D1B"/>
<path d="M10.5153 392.791H0V336.17H10.5153C18.604 336.17 23.0528 341.024 23.0528 350.407V378.555C23.0528 388.019 18.604 392.791 10.5153 392.791ZM8.89756 344.34V384.622H10.5153C12.861 384.622 14.1552 383.247 14.1552 379.041V349.921C14.1552 345.796 12.861 344.34 10.5153 344.34H8.89756Z" fill="#1D1D1B"/>
<path d="M358.144 114.201H340.43V57.58H357.901V66.154H349.327V81.199H357.092V89.773H349.327V105.627H358.144V114.201Z" fill="#1D1D1B"/>
<path d="M328.875 114.201H316.904L310.514 57.58H319.492L322.242 90.0965C322.647 94.6262 322.97 100.774 323.051 103.362H323.375C323.536 100.774 324.022 94.4644 324.426 90.0965L327.5 57.58H336.397L328.875 114.201Z" fill="#1D1D1B"/>
<path d="M295.984 115.171C288.542 115.171 284.336 110.561 284.336 101.34V70.441C284.336 61.2199 288.542 56.6093 295.984 56.6093C303.425 56.6093 307.631 61.3008 307.631 70.441V101.34C307.631 110.561 303.425 115.171 295.984 115.171ZM295.984 107.002C297.763 107.002 298.734 105.708 298.734 101.906V69.8748C298.734 66.0731 297.763 64.7789 295.984 64.7789C294.204 64.7789 293.234 66.0731 293.234 69.8748V101.906C293.234 105.708 294.204 107.002 295.984 107.002Z" fill="#1D1D1B"/>
<path d="M281.917 114.201H264.203V57.58H273.101V105.627H281.917V114.201Z" fill="#1D1D1B"/>
<path d="M394.985 200.562L400 225.637H390.779L386.573 203.07H384.874V225.637H375.977V169.016H386.573C394.742 169.016 399.029 173.384 399.029 183.252V188.914C399.029 194.9 397.25 198.783 394.985 200.562ZM390.132 189.561V182.605C390.132 178.48 388.838 176.943 386.573 176.943H384.874V195.143H386.573C388.838 195.143 390.132 193.687 390.132 189.561Z" fill="#1D1D1B"/>
<path d="M354.558 225.637H345.66L353.344 169.016H365.316L372.11 225.637H363.213L362.08 214.394H355.69L354.558 225.637ZM358.036 188.025L356.418 205.82H361.433L359.896 188.025C359.492 184.142 359.249 179.37 359.168 178.318H358.926C358.845 179.127 358.44 183.98 358.036 188.025Z" fill="#1D1D1B"/>
<path d="M329.205 226.608C323.057 226.608 319.094 221.916 319.094 212.695V181.958C319.094 172.818 323.462 168.046 330.984 168.046C338.426 168.046 342.632 172.737 342.632 182.039V186.811H333.734V181.392C333.734 177.59 332.683 176.215 330.903 176.215C329.043 176.215 327.991 177.59 327.991 181.392V213.261C327.991 217.063 329.043 218.438 330.903 218.438C332.764 218.438 333.815 217.063 333.815 213.261V202.099H330.661V194.091H342.632V226.041H338.021L336.889 222.321C335.514 224.909 332.845 226.608 329.205 226.608Z" fill="#1D1D1B"/>
<path d="M301.752 226.608C294.392 226.608 290.186 221.997 290.186 212.776V169.016H299.083V213.342C299.083 217.144 300.135 218.438 301.752 218.438C303.37 218.438 304.341 217.144 304.341 213.342V169.016H313.238V212.776C313.238 221.997 308.951 226.608 301.752 226.608Z" fill="#1D1D1B"/>
<path d="M273.991 226.608C266.63 226.608 262.586 222.078 262.586 213.18V207.842H271.484V213.747C271.484 217.144 272.211 218.438 273.991 218.438C275.771 218.438 276.579 217.144 276.579 213.585C276.579 208.893 275.851 207.761 270.108 199.591C264.204 191.341 262.99 188.267 262.99 181.796C262.99 172.737 267.035 168.046 274.234 168.046C281.513 168.046 285.558 172.737 285.558 181.715V186.245H276.66V181.068C276.66 177.428 275.851 176.215 274.234 176.215C272.616 176.215 271.888 177.509 271.888 181.23C271.888 185.76 272.373 186.65 278.116 194.576C284.102 202.989 285.477 206.143 285.477 212.938C285.477 222.078 281.433 226.608 273.991 226.608Z" fill="#1D1D1B"/>
<path d="M374.052 337.073H365.154V280.452H374.052V304.233H379.471V280.452H388.369V337.073H379.471V312.807H374.052V337.073Z" fill="#1D1D1B"/>
<path d="M355.099 337.073H346.201V289.026H339.73V280.452H361.489V289.026H355.099V337.073Z" fill="#1D1D1B"/>
<path d="M333.45 311.998L338.465 337.073H329.244L325.038 314.506H323.339V337.073H314.441V280.452H325.038C333.207 280.452 337.494 284.82 337.494 294.688V300.351C337.494 306.336 335.715 310.219 333.45 311.998ZM328.597 300.998V294.041C328.597 289.916 327.302 288.379 325.038 288.379H323.339V306.579H325.038C327.302 306.579 328.597 305.123 328.597 300.998Z" fill="#1D1D1B"/>
<path d="M293.023 337.073H284.125L291.809 280.452H303.781L310.575 337.073H301.677L300.545 325.83H294.155L293.023 337.073ZM296.501 299.461L294.883 317.256H299.898L298.361 299.461C297.957 295.578 297.714 290.806 297.633 289.754H297.39C297.31 290.563 296.905 295.416 296.501 299.461Z" fill="#1D1D1B"/>
<path d="M281.917 337.073H264.203V280.452H281.675V289.026H273.101V304.071H280.866V312.645H273.101V328.499H281.917V337.073Z" fill="#1D1D1B"/>
</svg>
